<svg xmlns="http://www.w3.org/2000/svg" viewBox="0 0 254.06 138.2"><defs><style>.cls-1{fill:#0c2340;}.cls-2{fill:#ffc72c;}</style></defs><title>Asset 13</title><g id="Layer_2" data-name="Layer 2"><g id="Component_7_7" data-name="Component 7 7"><path id="Path_1" data-name="Path 1" class="cls-1" d="M77.29,66.16S66,65.79,61.5,55.63c0,0-10.52,11.79-26.84,16l1.09,2.9v37.55l-3.09,3.08s-12.4-8-13.42-19.95c-.94-10.9.7-19.1,12.86-29.62A33.48,33.48,0,0,1,42.27,59.8V58.53C22.68,58.53,0,76.31,0,97c0,20.5,15.56,32.65,36.11,32.65,0,0,13.06.12,22.73-5.2v5.11c0,.41-.78.34-.78.34-2.8,0-5.07,1.86-5.07,4.15s2.27,4.16,5.07,4.16,5.07-1.86,5.07-4.16V122.48s2.73-2.09,3.63-2.81a1,1,0,0,0-.9-1.82c-1.09.36-2.72,1.09-2.72,1.09V70.87s9.43.91,14.15-4.71M58.79,120c-16.33,1.81-20.68-1.82-20.68-1.82l13.42-11.42V67.61c0-1.82,7.26,2.72,7.26,2.72Z"/><path id="Path_2" data-name="Path 2" class="cls-2" d="M184.55,26.1a2,2,0,0,0-1.85.12c-2,1.5-3.69,2.42-5.08,2.54a4,4,0,0,0-3.11,1.5l-1.39,1.27c-.12.23-.69.58-2.54.81-.35.23-1.39.81-.93,1.38a20.09,20.09,0,0,1,1.62,2.66,6.27,6.27,0,0,1-1.73,6,3,3,0,0,1-2.77.92c-.58-.11-1.28-.46-1.28-1.15a2.36,2.36,0,0,1,1-1.74c1.16-1.5,1.16-2.77-.11-3.92a2.9,2.9,0,0,0-2.77,0c-1.85.81-2.08,2.42-.93,3.92a5.44,5.44,0,0,1-.35,1.74,2,2,0,0,1-2.31,1c-1.73-.93-2.54-2.55-2.3-5.32a19.93,19.93,0,0,1,2.65-3.35A10.11,10.11,0,0,0,156,30.38a10.11,10.11,0,0,0-4.39,4.15,10.53,10.53,0,0,1,2.2,3.35,5.63,5.63,0,0,1-1.15,4.74c-1.16.81-2.31,1.27-3.47.58a2.27,2.27,0,0,1-.35-2.78,2.56,2.56,0,0,0-.46-3.58,2.45,2.45,0,0,0-2.89,0c-1.15.93-1,2.08-.11,3.58a3.17,3.17,0,0,1-.12,1.5c-.92,2-2.31,1.74-3.92,1-2.89-2.77-2.78-5.66.57-8.43a1.3,1.3,0,0,0-.05-1.84,1.28,1.28,0,0,0-.87-.35,10.24,10.24,0,0,1-5.89-3.7c-1.39-2.89-3.24-2.89-4.62,0a11.32,11.32,0,0,1-5.89,3.7c-1.28.23-1.62,1.27-1,2.07,3.47,2.89,3.47,5.66.7,8.55-1.62.7-3,.81-3.93-1a2.41,2.41,0,0,1-.11-1.61c.92-1.39,1-2.66-.12-3.47a2.62,2.62,0,0,0-3,0,2.55,2.55,0,0,0-.35,3.58h0a2.48,2.48,0,0,1-.34,2.66c-1.27.69-2.31.34-3.47-.46a5.74,5.74,0,0,1-1.15-4.74,11.57,11.57,0,0,1,2.08-3.47,10.23,10.23,0,0,0-4.39-4.15,13.61,13.61,0,0,0-4.39,4.15,13,13,0,0,1,2.65,3.47c.35,2.66-.46,4.39-2.19,5.2-1.16.23-2,0-2.42-1a8,8,0,0,1-.23-1.61,2.4,2.4,0,0,0,0-3.38,2.33,2.33,0,0,0-.9-.55,3.14,3.14,0,0,0-2.89,0c-1.15,1.15-1.27,2.42-.11,3.93A2,2,0,0,1,100,42c.12.81-.57,1.16-1.27,1.27a3.05,3.05,0,0,1-2.65-.92,6.22,6.22,0,0,1-1.85-6.12A12.59,12.59,0,0,1,96,33.72c.46-.57-.58-1.27-1-1.38-1.85-.35-2.42-.58-2.42-.81l-1.39-1.39A4.87,4.87,0,0,0,88,28.76a11.33,11.33,0,0,1-5.2-2.54,1.78,1.78,0,0,0-1.73-.12,1.51,1.51,0,0,0-.46,1.73A30.64,30.64,0,0,1,90.77,45.39h84.09A30.4,30.4,0,0,1,184.9,28a1.45,1.45,0,0,0-.34-1.85"/><path id="Path_3" data-name="Path 3" class="cls-2" d="M87.06,24.94a22.93,22.93,0,0,1,6.24,2.43,4.7,4.7,0,0,0,3.7-.7,53.1,53.1,0,0,1,17.67-9.47c1-.35,1.62,0,1.27,1a16.93,16.93,0,0,0-5.77,8.2c0,1,.69,1.5,2.19,1.39a3.15,3.15,0,0,1,2.77.23c1,.23,1.85-.12,2.54-1.73.7-4.51,3.47-7.63,7.51-9.83,1.85-.22,2.66.58,2.43,2.32a12.22,12.22,0,0,0-3.12,5.2c.12,1.73,1,2.31,2.54,1.84.92,0,1.62-.8,2.2-2.3a3.93,3.93,0,0,1,6.93,0c.58,1.5,1.27,2.3,2.08,2.3,1.62.47,2.54-.11,2.66-1.84a12.22,12.22,0,0,0-3.12-5.2c-.23-1.74.57-2.54,2.42-2.32,4.05,2.2,6.82,5.32,7.51,9.83.58,1.61,1.5,2,2.43,1.73a3.44,3.44,0,0,1,2.89-.23c1.5.11,2.19-.35,2.19-1.39a16.88,16.88,0,0,0-5.77-8.2c-.35-1,.23-1.39,1.27-1a53.1,53.1,0,0,1,17.67,9.47,4.69,4.69,0,0,0,3.69.7,21.59,21.59,0,0,1,6.24-2.43c1.39-.23,1.85-1.27,1.51-2.88a6.18,6.18,0,0,0-4.62-2.66,2.33,2.33,0,0,1-2.08-.69c-1.27-2.2-3.58-3-6.7-2.54-1.5-1.74-3.59-2.08-5.78-2a6.42,6.42,0,0,0-6.47-1.85c-2.54-1.61-4.85-2.19-6.81-1.15a8.66,8.66,0,0,0-8.32.7,6.64,6.64,0,0,0-3.81-3.7V6.12h3v-3h-3V0h-5.08V3.11h-3v3h3V8.19a6.35,6.35,0,0,0-3.82,3.7,8.69,8.69,0,0,0-8.31-.7c-2.08-1-4.39-.46-6.82,1.15a6.43,6.43,0,0,0-6.47,1.85c-2.31-.11-4.27.23-5.77,2-3.12-.47-5.43.34-6.7,2.54a2.35,2.35,0,0,1-2.08.69,6.14,6.14,0,0,0-4.62,2.66c-.35,1.61.11,2.66,1.5,2.88M132.8,9.81c1.62,0,2.89,1.61,2.89,3.7s-1.27,3.81-2.89,3.81-3-1.73-3-3.81,1.39-3.7,3-3.7"/><path id="Path_4" data-name="Path 4" class="cls-2" d="M90.76,59h84.09V51.16H90.76Zm74.62-6.12a2.31,2.31,0,1,1-2.31,2.31,2.32,2.32,0,0,1,2.31-2.31m-16.06,0A2.31,2.31,0,1,1,147,55.21h0a2.32,2.32,0,0,1,2.31-2.31m-16.52,0a2.31,2.31,0,1,1-2.31,2.31h0a2.32,2.32,0,0,1,2.31-2.31m-16.52,0A2.31,2.31,0,1,1,114,55.21a2.3,2.3,0,0,1,2.31-2.31m-16.17,0a2.31,2.31,0,1,1-2.31,2.31,2.3,2.3,0,0,1,2.31-2.31"/><rect id="Rectangle_2" data-name="Rectangle 2" class="cls-2" x="90.76" y="47.24" width="84.09" height="2.08"/><path id="Path_5" data-name="Path 5" class="cls-1" d="M98.32,83.38c0-1.35,1.81-2.9,1.81-2.9-6.7-.72-17.4-5.6-17.4-5.6-6,5.07-15.59,5.61-15.59,5.61-.18,1.09,1.45,3.08,1.45,3.08v24.06A10.09,10.09,0,0,0,66.37,110a8.79,8.79,0,0,0-.86,1.35c13.41,1.45,18.85,8.4,18.85,8.4,6-6.7,16.13-8.15,16.13-8.15-1.64-.73-2.18-3-2.18-3.44ZM87.44,110c-7.24-1.45-8.7-3.08-8.7-3.08V82c0-.55,8.7,3.08,8.7,3.08Z"/><path id="Path_6" data-name="Path 6" class="cls-1" d="M165.5,83.38c0-1.35,1.82-2.9,1.82-2.9-6.7-.72-17.4-5.6-17.4-5.6-6,5.07-15.58,5.61-15.58,5.61-.18,1.09,1.45,3.08,1.45,3.08v24.06a10.13,10.13,0,0,0-2.23,2.39,8.27,8.27,0,0,0-.85,1.35c13.41,1.45,18.84,8.4,18.84,8.4,6-6.7,16.13-8.15,16.13-8.15-1.63-.73-2.18-3-2.18-3.44ZM154.63,110c-7.25-1.45-8.7-3.08-8.7-3.08V82c0-.55,8.7,3.08,8.7,3.08Z"/><path id="Path_7" data-name="Path 7" class="cls-1" d="M243.61,110.84a4.25,4.25,0,0,1-3.63-3.45V80.13c-7.79-2.53-15.4-5.25-15.4-5.25a47.63,47.63,0,0,1-15,5.61c-.18,1.09,1.45,3.09,1.45,3.09v25.25s-.29.43-1,1.34c-.29.39-.8,1-1,1.21,7.77,1,16.34,8.4,16.34,8.4l6.24-6.71,7,6.71,8.35-8.4Zm-14.5-.84a34.94,34.94,0,0,0-7.79-4.22V81.91c.36.45,7.79,3.08,7.79,3.08Z"/><path id="Path_8" data-name="Path 8" class="cls-1" d="M121.33,111.38c-7.06,4.07-9,8.4-9,8.4s-1.93-4.33-9-8.4l3.29,0V85.21A5.12,5.12,0,0,0,102,80.5l9.15-5.62s5.8,3.44,6.71,4.89c0,0-1.1.87,6.33-4l1.26-.9S130,80,133.52,80.76c-.9,3.27-4.19,7.31-13.26,2.29,0,0-2.2-.48-2.2,1v27.36Z"/><path id="Path_9" data-name="Path 9" class="cls-1" d="M205.22,80.49c-3.59-1.39-10.33-5.64-10.33-5.64l-1.27.91C186.19,80.65,184.5,80,184.5,80c-.9-1.45-6.7-4.89-6.7-4.89L169,80.49a5.14,5.14,0,0,1,4.62,4.72v26.17l-3.28,0c7.06,4.07,9,8.41,9,8.41s1.93-4.32,9-8.4H185V85l4.71-2.68L193.33,85v26.4h-3.28c7.06,4.07,8.59,8.4,8.59,8.4s1.92-4.33,9-8.4h-3.28l0-27.44S206.13,80.86,205.22,80.49Z"/><path id="Path_10" data-name="Path 10" class="cls-1" d="M250.46,121.05a1.38,1.38,0,0,0,1.06-1.26c0-.7-.49-1.3-1.71-1.3h-2v4.61h.83v-1.93h.92a9.07,9.07,0,0,1,1.3,1.93h1.05a10,10,0,0,0-1.43-2m-.73-.6h-1.1v-1.3h1.1c.4,0,.87.1.87.63s-.46.66-.87.66"/><path id="Path_11" data-name="Path 11" class="cls-1" d="M245.35,120.75a4.36,4.36,0,1,0,4.36-4.36,4.36,4.36,0,0,0-4.36,4.36m.81,0a3.55,3.55,0,1,1,3.55,3.54h0a3.55,3.55,0,0,1-3.55-3.54"/></g></g></svg>