<svg id="Component_7_7" data-name="Component 7 – 7" xmlns="http://www.w3.org/2000/svg" width="254.062" height="138.203" viewBox="0 0 254.062 138.203">
  <path id="Path_1" data-name="Path 1" d="M563.083,393.648s-11.244-.366-15.781-10.523c0,0-10.522,11.791-26.848,15.965l1.09,2.9v37.55l-3.084,3.083s-12.4-7.985-13.424-19.954c-.934-10.9.7-19.093,12.858-29.615a33.463,33.463,0,0,1,10.179-5.76v-1.267c-19.59,0-42.275,17.777-42.275,38.456,0,20.5,15.564,32.653,36.107,32.653,0,0,13.061.12,22.736-5.2v5.109c.018.409-.787.334-.787.334-2.8,0-5.068,1.859-5.068,4.156s2.27,4.153,5.068,4.153,5.071-1.86,5.071-4.153V449.971s2.73-2.086,3.637-2.812a1.029,1.029,0,0,0-.907-1.814c-1.09.362-2.721,1.089-2.721,1.089V398.363s9.434.906,14.149-4.715m-18.5,53.874c-16.326,1.814-20.678-1.815-20.678-1.815l13.422-11.428V395.1c0-1.816,7.256,2.72,7.256,2.72Z" transform="translate(-485.798 -327.486)" fill="#fff"/>
  <path id="Path_2" data-name="Path 2" d="M670.351,353.591a2,2,0,0,0-1.85.117c-1.962,1.5-3.695,2.425-5.08,2.541a4.065,4.065,0,0,0-3.118,1.5l-1.386,1.27c-.116.232-.694.58-2.544.811-.343.229-1.384.808-.923,1.385a20.152,20.152,0,0,1,1.616,2.656,6.256,6.256,0,0,1-1.732,6.009,2.972,2.972,0,0,1-2.769.923c-.58-.115-1.276-.461-1.276-1.155a2.339,2.339,0,0,1,1.042-1.732c1.158-1.5,1.158-2.772-.115-3.927a2.928,2.928,0,0,0-2.772,0c-1.849.809-2.079,2.425-.925,3.927a5.727,5.727,0,0,1-.348,1.732,2.025,2.025,0,0,1-2.311,1.04c-1.728-.925-2.538-2.542-2.306-5.315a20.114,20.114,0,0,1,2.652-3.349,10.107,10.107,0,0,0-4.387-4.157,10.142,10.142,0,0,0-4.388,4.157,10.57,10.57,0,0,1,2.2,3.349,5.6,5.6,0,0,1-1.158,4.736c-1.155.808-2.31,1.269-3.465.579a2.251,2.251,0,0,1-.346-2.772,2.568,2.568,0,0,0-.465-3.583,2.426,2.426,0,0,0-2.886,0c-1.155.924-1.038,2.081-.116,3.583a3.064,3.064,0,0,1-.115,1.5c-.924,1.961-2.309,1.733-3.926,1.037-2.888-2.769-2.771-5.656.576-8.43a1.3,1.3,0,0,0-.923-2.194,10.2,10.2,0,0,1-5.891-3.7c-1.385-2.889-3.234-2.889-4.622,0a11.234,11.234,0,0,1-5.89,3.7c-1.271.229-1.619,1.271-1.041,2.077,3.465,2.891,3.465,5.66.692,8.547-1.616.7-3,.809-3.926-1.037a2.492,2.492,0,0,1-.115-1.618c.924-1.385,1.037-2.655-.114-3.466a2.61,2.61,0,0,0-3,0,2.545,2.545,0,0,0-.347,3.583,2.48,2.48,0,0,1-.346,2.655c-1.272.692-2.309.346-3.466-.462a5.7,5.7,0,0,1-1.154-4.736,11.533,11.533,0,0,1,2.08-3.466,10.237,10.237,0,0,0-4.39-4.158,13.72,13.72,0,0,0-4.393,4.158,13.123,13.123,0,0,1,2.659,3.466c.347,2.656-.46,4.39-2.195,5.2-1.155.232-1.962,0-2.423-1.04a8.864,8.864,0,0,1-.231-1.615,2.385,2.385,0,0,0-.925-3.927,3.159,3.159,0,0,0-2.887,0c-1.156,1.155-1.272,2.425-.117,3.927a2.008,2.008,0,0,1,1.037,1.615c.119.811-.574,1.157-1.27,1.272a3.049,3.049,0,0,1-2.654-.923,6.212,6.212,0,0,1-1.851-6.124,12.346,12.346,0,0,1,1.736-2.541c.46-.577-.58-1.273-1.041-1.385-1.849-.348-2.426-.579-2.426-.811l-1.385-1.386a4.888,4.888,0,0,0-3.119-1.384,11.213,11.213,0,0,1-5.2-2.541,1.791,1.791,0,0,0-1.73-.117,1.508,1.508,0,0,0-.464,1.734,30.6,30.6,0,0,1,10.166,17.558h84.091A30.42,30.42,0,0,1,670.7,355.44a1.442,1.442,0,0,0-.347-1.849" transform="translate(-485.798 -327.486)" fill="#ffc72c"/>
  <path id="Path_3" data-name="Path 3" d="M572.857,352.436a22.648,22.648,0,0,1,6.24,2.428,4.72,4.72,0,0,0,3.7-.7,53,53,0,0,1,17.673-9.47c1.04-.348,1.616,0,1.27,1.037a16.953,16.953,0,0,0-5.776,8.2c0,1.039.694,1.5,2.192,1.388a3.168,3.168,0,0,1,2.774.231c1.041.231,1.847-.116,2.541-1.732.7-4.506,3.467-7.625,7.511-9.822,1.846-.228,2.655.58,2.423,2.314a12.274,12.274,0,0,0-3.118,5.2c.117,1.731,1.037,2.311,2.541,1.846.924,0,1.619-.808,2.2-2.308a3.926,3.926,0,0,1,6.93,0c.577,1.5,1.272,2.308,2.08,2.308,1.617.465,2.541-.115,2.658-1.846a12.226,12.226,0,0,0-3.119-5.2c-.232-1.734.575-2.542,2.424-2.314,4.043,2.2,6.817,5.316,7.51,9.822.576,1.616,1.5,1.963,2.426,1.732a3.475,3.475,0,0,1,2.888-.231c1.5.115,2.194-.349,2.194-1.388a16.911,16.911,0,0,0-5.774-8.2c-.349-1.037.23-1.385,1.27-1.037a53.082,53.082,0,0,1,17.676,9.47,4.7,4.7,0,0,0,3.691.7,21.357,21.357,0,0,1,6.238-2.428c1.39-.23,1.852-1.271,1.505-2.887a6.154,6.154,0,0,0-4.62-2.657,2.329,2.329,0,0,1-2.08-.693c-1.272-2.2-3.581-3.006-6.7-2.541-1.5-1.733-3.583-2.079-5.776-1.964a6.418,6.418,0,0,0-6.468-1.851c-2.541-1.616-4.852-2.191-6.812-1.155a8.692,8.692,0,0,0-8.321.7,6.672,6.672,0,0,0-3.811-3.7v-2.079h3v-3h-3v-3.117h-5.082V330.6h-3v3h3v2.079a6.357,6.357,0,0,0-3.815,3.7,8.713,8.713,0,0,0-8.314-.7c-2.08-1.036-4.39-.461-6.815,1.155a6.422,6.422,0,0,0-6.47,1.851c-2.31-.115-4.273.231-5.775,1.964-3.12-.465-5.43.344-6.7,2.541a2.335,2.335,0,0,1-2.081.693,6.14,6.14,0,0,0-4.621,2.657c-.344,1.616.116,2.657,1.5,2.887M618.6,337.3c1.619,0,2.886,1.616,2.886,3.7s-1.267,3.814-2.886,3.814-3-1.732-3-3.814,1.386-3.7,3-3.7" transform="translate(-485.798 -327.486)" fill="#ffc72c"/>
  <path id="Path_4" data-name="Path 4" d="M576.556,386.511h84.091v-7.855H576.556Zm74.621-6.121a2.31,2.31,0,1,1-2.313,2.309,2.321,2.321,0,0,1,2.313-2.309m-16.057,0a2.31,2.31,0,1,1-2.31,2.309,2.317,2.317,0,0,1,2.31-2.309m-16.517,0a2.31,2.31,0,1,1-2.31,2.309,2.318,2.318,0,0,1,2.31-2.309m-16.52,0a2.31,2.31,0,1,1-2.312,2.309,2.318,2.318,0,0,1,2.312-2.309m-16.172,0A2.31,2.31,0,1,1,583.6,382.7a2.317,2.317,0,0,1,2.309-2.309" transform="translate(-485.798 -327.486)" fill="#ffc72c"/>
  <rect id="Rectangle_2" data-name="Rectangle 2" width="84.092" height="2.08" transform="translate(90.758 47.246)" fill="#ffc72c"/>
  <path id="Path_5" data-name="Path 5" d="M584.114,410.869c0-1.35,1.811-2.9,1.811-2.9-6.7-.721-17.4-5.6-17.4-5.6-5.979,5.073-15.583,5.616-15.583,5.616-.18,1.087,1.45,3.081,1.45,3.081v24.058a10.017,10.017,0,0,0-2.227,2.393,8.189,8.189,0,0,0-.853,1.347c13.408,1.451,18.845,8.4,18.845,8.4,5.979-6.7,16.128-8.154,16.128-8.154-1.632-.723-2.175-3.01-2.175-3.441Zm-10.873,26.613c-7.248-1.449-8.7-3.083-8.7-3.083v-24.96c0-.545,8.7,3.08,8.7,3.08Z" transform="translate(-485.798 -327.486)" fill="#fff"/>
  <path id="Path_6" data-name="Path 6" d="M651.3,410.869c0-1.35,1.814-2.9,1.814-2.9-6.7-.721-17.395-5.6-17.395-5.6-5.982,5.073-15.584,5.616-15.584,5.616-.18,1.087,1.451,3.081,1.451,3.081v24.058a10.1,10.1,0,0,0-2.23,2.393,8.093,8.093,0,0,0-.851,1.347c13.408,1.451,18.845,8.4,18.845,8.4,5.979-6.7,16.127-8.154,16.127-8.154-1.63-.723-2.177-3.01-2.177-3.441Zm-10.869,26.613c-7.25-1.449-8.7-3.083-8.7-3.083v-24.96c0-.545,8.7,3.08,8.7,3.08Z" transform="translate(-485.798 -327.486)" fill="#fff"/>
  <path id="Path_7" data-name="Path 7" d="M729.405,438.328a4.233,4.233,0,0,1-3.624-3.444V407.625c-7.791-2.535-15.4-5.253-15.4-5.253a47.811,47.811,0,0,1-15.039,5.614c-.18,1.088,1.45,3.082,1.45,3.082v25.256s-.29.429-.962,1.337c-.292.392-.8,1.007-.963,1.209,7.775.948,16.345,8.4,16.345,8.4l6.238-6.707,7.05,6.707,8.351-8.4Zm-14.5-.832a34.375,34.375,0,0,0-7.79-4.225V409.4c.359.457,7.79,3.081,7.79,3.081Z" transform="translate(-485.798 -327.486)" fill="#fff"/>
  <path id="Path_8" data-name="Path 8" d="M607.13,438.87c-7.063,4.069-8.99,8.4-8.99,8.4s-1.928-4.328-8.989-8.4l3.285.026V412.7a5.128,5.128,0,0,0-4.621-4.711l9.15-5.62s5.8,3.442,6.709,4.893c0,0-1.1.867,6.33-4.027l1.267-.9s4.525,5.126,8.051,5.912c-.9,3.279-4.194,7.312-13.266,2.3,0,0-2.2-.486-2.2.962V438.87Z" transform="translate(-485.798 -327.486)" fill="#fff"/>
  <path id="Path_9" data-name="Path 9" d="M691.02,407.986c-3.589-1.391-10.332-5.643-10.332-5.643l-1.266.909c-7.43,4.89-9.121,4.195-9.121,4.195-.907-1.45-6.708-4.892-6.708-4.892l-8.832,5.431a5.131,5.131,0,0,1,4.619,4.713V438.87l-3.286-.015c7.063,4.07,8.989,8.412,8.989,8.412s1.93-4.328,8.991-8.4H670.8l0-26.393,4.706-2.68,3.623,2.68V438.87l-3.283,0c7.06,4.068,8.59,8.4,8.59,8.4s1.927-4.331,8.992-8.4h-3.279l-.028-27.441S691.924,408.348,691.02,407.986Z" transform="translate(-485.798 -327.486)" fill="#fff"/>
  <path id="Path_10" data-name="Path 10" d="M736.26,448.543a1.377,1.377,0,0,0,1.055-1.26c0-.7-.483-1.3-1.71-1.3h-2.01v4.61h.835v-1.934h.915a9.042,9.042,0,0,1,1.3,1.934H737.7a9.971,9.971,0,0,0-1.436-2.054m-.727-.6c-.409,0-1.1.01-1.1.01v-1.3h1.1c.4,0,.871.107.871.633s-.464.661-.871.661" transform="translate(-485.798 -327.486)" fill="#fff"/>
  <path id="Path_11" data-name="Path 11" d="M731.148,448.244a4.356,4.356,0,1,0,4.357-4.357,4.36,4.36,0,0,0-4.357,4.357m.814,0a3.542,3.542,0,1,1,3.543,3.54,3.545,3.545,0,0,1-3.543-3.54" transform="translate(-485.798 -327.486)" fill="#fff"/>
</svg>
